<svg width="491" height="402" viewBox="0 0 491 402" fill="none" xmlns="http://www.w3.org/2000/svg">
<path d="M0.0510894 277.784C-0.548911 241.584 6.95109 207.084 20.3511 173.784C35.1511 136.884 56.6511 104.484 85.2511 76.8837C124.551 38.8837 170.951 13.7837 224.851 3.78373C269.151 -4.41627 312.351 0.78373 354.051 18.6837C383.751 31.4837 409.851 49.3837 431.751 73.0837C462.251 106.184 482.451 144.684 488.951 189.384C494.451 227.384 488.851 264.084 471.451 298.584C445.951 348.984 405.851 382.184 351.451 396.584C313.951 406.484 277.251 401.784 242.651 383.684C239.051 381.784 234.551 380.684 230.451 380.684C166.051 380.484 101.651 380.584 37.2511 380.584C23.9511 380.584 17.4511 375.884 13.3511 363.184C4.15109 335.384 -0.548911 306.884 0.0510894 277.784ZM190.251 339.384C188.851 336.984 188.051 335.684 187.151 334.384C170.351 309.184 160.651 281.884 162.051 251.184C163.651 214.784 178.051 184.184 205.451 160.384C233.451 136.084 265.951 124.184 303.151 132.184C342.551 140.684 369.151 164.584 382.551 202.784C385.551 211.284 382.551 220.384 375.651 225.284C363.651 233.984 348.251 228.984 343.151 214.584C334.351 190.184 316.951 175.784 291.651 172.184C267.251 168.684 245.851 177.184 228.951 194.584C203.451 220.684 196.551 251.684 208.551 286.384C227.551 340.984 289.351 372.484 344.651 355.984C374.451 347.084 399.051 330.584 418.351 306.084C436.151 283.584 446.051 257.984 448.751 229.684C451.751 198.284 444.751 168.784 429.851 141.084C407.451 99.3837 374.051 70.0837 329.751 53.3837C295.951 40.6837 261.051 37.6837 225.851 45.5837C173.851 57.3837 130.851 84.1837 96.6511 125.284C64.0511 164.484 45.9511 209.684 41.8511 260.284C39.8511 284.984 41.6511 309.684 47.5511 333.984C48.5511 338.084 50.2511 339.484 54.5511 339.484C97.8511 339.284 141.051 339.384 184.351 339.384C185.851 339.384 187.351 339.384 190.251 339.384Z" fill="url(#paint0_linear_1303_5559)"/>
<defs>
<linearGradient id="paint0_linear_1303_5559" x1="0" y1="200.833" x2="490.984" y2="200.833" gradientUnits="userSpaceOnUse">
<stop stop-color="#7979F2"/>
<stop offset="1" stop-color="#A179F2"/>
</linearGradient>
</defs>
</svg>
