<svg width="286" height="236" viewBox="0 0 286 236" fill="none" xmlns="http://www.w3.org/2000/svg">
<path d="M0.0297588 163.077C-0.319732 141.825 4.0489 121.572 11.8542 102.022C20.475 80.3598 32.9984 61.3389 49.6575 45.1357C72.5491 22.8272 99.5763 8.09192 130.972 2.22129C156.776 -2.59264 181.94 0.4601 206.229 10.9685C223.529 18.483 238.732 28.9914 251.488 42.9049C269.254 62.3369 281.02 84.9389 284.806 111.181C288.01 133.489 284.748 155.034 274.613 175.288C259.76 204.876 236.402 224.367 204.715 232.82C182.872 238.632 161.494 235.873 141.341 225.247C139.244 224.132 136.622 223.486 134.234 223.486C96.7222 223.369 59.2102 223.427 21.6982 223.427C13.9511 223.427 10.165 220.668 7.77681 213.212C2.41795 196.892 -0.319732 180.161 0.0297588 163.077ZM110.818 199.24C110.003 197.831 109.537 197.068 109.013 196.305C99.2269 181.511 93.5768 165.484 94.3922 147.461C95.3242 126.092 103.712 108.128 119.672 94.1558C135.982 79.8901 154.912 72.904 176.581 77.6006C199.531 82.5906 215.025 96.6215 222.83 119.047C224.578 124.037 222.83 129.38 218.811 132.256C211.821 137.364 202.851 134.428 199.88 125.975C194.754 111.65 184.619 103.197 169.882 101.083C155.67 99.0284 143.204 104.018 133.36 114.233C118.507 129.556 114.488 147.755 121.478 168.126C132.545 200.18 168.543 218.672 200.754 208.986C218.112 203.761 232.441 194.074 243.683 179.691C254.051 166.482 259.818 151.453 261.391 134.839C263.138 116.406 259.061 99.0871 250.382 82.8254C237.334 58.3447 217.879 41.1437 192.075 31.3397C172.387 23.884 152.058 22.1228 131.555 26.7606C101.266 33.6879 76.2187 49.4213 56.2978 73.5498C37.3088 96.5627 26.7658 123.098 24.3776 152.804C23.2127 167.304 24.2611 181.805 27.6978 196.07C28.2803 198.477 29.2705 199.299 31.7752 199.299C56.9968 199.182 82.1601 199.24 107.382 199.24C108.255 199.24 109.129 199.24 110.818 199.24Z" fill="url(#paint0_linear_2_3)"/>
<defs>
<linearGradient id="paint0_linear_2_3" x1="4.27653e-08" y1="117.902" x2="285.991" y2="117.902" gradientUnits="userSpaceOnUse">
<stop stop-color="#7979F2"/>
<stop offset="1" stop-color="#A179F2"/>
</linearGradient>
</defs>
</svg>
