<svg width="312" height="105" viewBox="0 0 312 105" fill="none" xmlns="http://www.w3.org/2000/svg">
<rect width="312" height="104" transform="translate(0 0.5)" fill="#FFCCD4" fill-opacity="0.2"/>
<line x1="97" y1="103.5" x2="225" y2="103.5" stroke="#CCCCCC" stroke-width="2" stroke-linecap="round"/>
<line x1="93" y1="103.5" x2="87" y2="103.5" stroke="#CCCCCC" stroke-width="2" stroke-linecap="round"/>
<path d="M165.5 9.99994C150.978 8.49994 135.322 15.6132 137 27.9999C139.952 49.7814 176.667 40.9999 164 24.9999C154.5 12.9999 134.913 31.3195 167.5 51.6007" stroke="#CCCCCC" stroke-width="2" stroke-linecap="round" stroke-dasharray="4 4"/>
<path d="M179.793 11.3059C179.751 11.8854 179.291 12.4775 178.37 12.919C177.464 13.3535 176.206 13.5878 174.814 13.4875C173.422 13.3872 172.21 12.9747 171.376 12.4147C170.528 11.8457 170.157 11.1937 170.199 10.6142C170.241 10.0348 170.701 9.44271 171.622 9.00117C172.528 8.56668 173.787 8.33236 175.178 8.43269C176.57 8.53303 177.782 8.94548 178.616 9.50545C179.464 10.0745 179.835 10.7265 179.793 11.3059Z" fill="#A0A0A0" stroke="#A0A0A0"/>
<path d="M179.722 10.7396C179.555 10.93 179.279 11.0645 178.867 11.1042C178.453 11.144 177.939 11.0831 177.365 10.9197C176.216 10.5928 174.918 9.88304 173.87 8.95889C172.823 8.0366 172.267 7.11473 172.082 6.32182C171.899 5.5408 172.07 4.87419 172.506 4.37935C172.943 3.88451 173.582 3.63108 174.38 3.71416C175.19 3.7985 176.175 4.23472 177.221 5.15701C178.269 6.08116 179.136 7.27919 179.605 8.37791C179.839 8.92743 179.964 9.42941 179.977 9.84501C179.989 10.2593 179.89 10.5492 179.722 10.7396Z" fill="#F7F7F7" fill-opacity="0.5" stroke="#A0A0A0"/>
<path d="M179.596 12.4947C179.457 12.2821 179.204 12.1096 178.801 12.0111C178.397 11.9123 177.88 11.8989 177.288 11.9782C176.104 12.1369 174.719 12.6532 173.548 13.4174C172.38 14.1801 171.698 15.0126 171.4 15.7707C171.108 16.5175 171.181 17.2017 171.542 17.754C171.903 18.3063 172.5 18.6489 173.301 18.6811C174.115 18.7138 175.152 18.4234 176.319 17.6607C177.49 16.8965 178.52 15.8352 179.141 14.8151C179.452 14.3049 179.647 13.826 179.719 13.4165C179.791 13.0082 179.735 12.7072 179.596 12.4947Z" fill="#F7F7F7" fill-opacity="0.5" stroke="#A0A0A0"/>
<circle cx="186.106" cy="11.9349" r="2.27547" transform="rotate(4.1237 186.106 11.9349)" fill="#A0A0A0"/>
<rect x="150" y="50.5" width="60" height="53" rx="1" fill="#EDEDED" stroke="#A0A0A0" stroke-linejoin="round"/>
<path d="M151.357 51.7704C151.178 51.1326 151.657 50.5 152.32 50.5H208.419C208.971 50.5 209.419 50.9477 209.419 51.5V75.5C209.419 76.0523 208.971 76.5 208.419 76.5H159.06C158.612 76.5 158.219 76.2018 158.097 75.7704L151.357 51.7704Z" fill="#DDDDDD"/>
<path d="M151.528 51.8614C151.274 51.2061 151.757 50.5 152.46 50.5H210.787C211.2 50.5 211.57 50.7537 211.719 51.1386L219.472 71.1386C219.726 71.7939 219.243 72.5 218.54 72.5H160.213C159.8 72.5 159.43 72.2463 159.281 71.8614L151.528 51.8614Z" fill="white" stroke="#A0A0A0" stroke-linejoin="round"/>
<rect x="112" y="50.5" width="39" height="53" rx="1" fill="#DBDBDB" stroke="#A0A0A0" stroke-linejoin="round"/>
<path d="M112 51.5C112 50.9477 112.448 50.5 113 50.5H149.719C150.37 50.5 150.847 51.1114 150.689 51.7425L144.689 75.7425C144.578 76.1877 144.178 76.5 143.719 76.5H113C112.448 76.5 112 76.0523 112 75.5V51.5Z" fill="#CCCCCC"/>
<rect x="112" y="50.5" width="39" height="53" rx="1" stroke="#A0A0A0" stroke-linejoin="round"/>
<path d="M111.549 51.1286C111.7 50.749 112.068 50.5 112.477 50.5H149.523C150.23 50.5 150.714 51.2145 150.451 51.8714L142.451 71.8714C142.3 72.251 141.932 72.5 141.523 72.5H104.477C103.77 72.5 103.286 71.7855 103.549 71.1286L111.549 51.1286Z" fill="#EDEDED" stroke="#A0A0A0" stroke-linejoin="round"/>
</svg>
